<svg xmlns="http://www.w3.org/2000/svg" width="221" height="328" viewBox="0 0 221 328" fill="none"><path d="M17.5412 222.94C11.177 218.737 6.66595 213.737 3.99383 207.938C1.3217 202.153 0 194.043 0 183.635V148.827C0 136.025 1.3217 126.332 3.99383 119.72C6.65159 113.123 10.9615 107.716 16.9235 103.514C22.8711 99.3115 33.4447 93.4145 48.6155 85.8085L220.35 0V70.2184L83.0946 138.644C73.2393 143.448 66.7888 147.244 63.7001 150.046C60.6257 152.847 59.0885 156.251 59.0885 160.257V167.457C59.0885 171.463 60.5251 174.867 63.3984 177.668C66.2573 180.47 72.837 184.266 83.0946 189.07L220.35 258.686V327.7L50.4687 241.275C34.867 233.277 23.8911 227.17 17.5412 222.968V222.94Z" fill="#E55625"></path></svg>